<svg xmlns="http://www.w3.org/2000/svg" viewBox="0 0 500 500"><g id="freepik--background-complete--inject-2"><rect x="374.53" y="50.87" width="73.88" height="73.88" style="fill:#ebebeb"></rect><path d="M412.7,62.72a2.49,2.49,0,0,1,2.51,2.51v1.29a21.31,21.31,0,0,1,9.05,3.21A3.12,3.12,0,0,1,426,72.54a3.21,3.21,0,0,1-3.27,3.21,3.41,3.41,0,0,1-1.75-.53,21.41,21.41,0,0,0-6-2.57V83.87c8.88,2.22,12.68,5.78,12.68,12,0,6.43-5,10.69-12.44,11.39v3.51a2.49,2.49,0,0,1-2.51,2.51,2.54,2.54,0,0,1-2.57-2.51v-3.63a25.25,25.25,0,0,1-12-4.55,3.21,3.21,0,0,1-1.57-2.81,3.16,3.16,0,0,1,3.21-3.21,3.26,3.26,0,0,1,1.93.64,20.7,20.7,0,0,0,8.64,3.92V89.65c-8.53-2.22-12.5-5.43-12.5-12,0-6.25,5-10.57,12.27-11.16V65.23A2.54,2.54,0,0,1,412.7,62.72Zm-2.34,19.92V72.3c-3.74.35-5.61,2.34-5.61,4.91S405.86,81.18,410.36,82.64ZM415,90.76v10.63c3.74-.41,5.79-2.28,5.79-5.08C420.76,93.74,419.47,92.16,415,90.76Z" style="fill:#fff"></path><path d="M118,302.39a352.34,352.34,0,0,0-.51-37.48,477,477,0,0,0-11.74-76.36c-3.27-14.13-7.31-28-11.51-41.9-.12-.41-.79-.3-.68.14,13,48.92,23.65,99.4,22.92,150.25-.21,14.23-1.85,28.2-3.21,42.35,0,.37.59.52.68.14C116.63,327.42,117.5,314.75,118,302.39Z" style="fill:#ebebeb"></path><path d="M93.56,146.79s-19.68,50-15.27,61.69,13.49,14.25,13.49,14.25-12,17.19-3.63,33.31,27.11,15.37,28.35,33.65C116.5,289.69,117.55,213.25,93.56,146.79Z" style="fill:#ebebeb"></path><path d="M114.37,258.12a.47.47,0,0,0,0-.26c-2.77-34-8.79-67.82-19.09-100.49,0-.09-.19-.06-.17,0q5.85,21.92,10.34,44.07a21.85,21.85,0,0,0-9.4-5.24c-.06,0-.09.08,0,.1,3.64,1.58,7.13,3.4,9.7,6.49.57,2.89,1.14,5.79,1.67,8.69-4.4-4.92-10.5-7.36-16.6-9.67-.09,0-.13.1,0,.13,6.36,2.59,12.69,5.92,17,11.4q2.25,12.44,4,25a23.71,23.71,0,0,0-11.74-6.72c-.13,0-.21.17-.07.21a24.7,24.7,0,0,1,11.9,7.62l.07.05q.6,4.41,1.12,8.82a30.4,30.4,0,0,0-8.23-5c-.08,0-.12.09,0,.13a28.35,28.35,0,0,1,8.24,5.45.18.18,0,0,0,.1,0c.33,2.8.65,5.6.94,8.4a40,40,0,0,0-16.69-11.92.11.11,0,0,0-.08.2,43.4,43.4,0,0,1,16.45,12.66.38.38,0,0,0,.42.13c.42,4.3.81,8.6,1.12,12.92,0,.06.1.06.1,0Q114.91,264.75,114.37,258.12Z" style="fill:#fff"></path><path d="M98.55,191.28c-3.41-2.35-7.75-3.35-11.82-3.69a.08.08,0,0,0,0,.15c4.24.63,7.8,2.17,11.69,3.82C98.58,191.64,98.7,191.38,98.55,191.28Z" style="fill:#fff"></path><path d="M100.94,244.17a24.93,24.93,0,0,0-8.87-3c-.11,0-.12.15,0,.17a33.22,33.22,0,0,1,8.78,3.08A.12.12,0,0,0,100.94,244.17Z" style="fill:#fff"></path><path d="M169.74,209.3A133.74,133.74,0,0,0,147,229.21a81.83,81.83,0,0,0-16,27.09,202.39,202.39,0,0,0-11.9,64.79,157.56,157.56,0,0,0,3.5,36.44.35.35,0,0,0,.68-.13,204.58,204.58,0,0,1,.36-63.69c3.39-20.66,8.69-43.15,21.83-59.94,7.15-9.14,16.07-16.34,24.89-23.77C170.81,209.61,170.22,209,169.74,209.3Z" style="fill:#ebebeb"></path><path d="M122,306.22A122.24,122.24,0,0,1,138.59,285c9.84-9.84,18.13-16.84,19.41-23.35s-9.86-11.3-9.86-11.3,13.62,2.45,17.35-3.27S171,208.23,171,208.23s-24.79,17.7-36.33,42.51S122,306.22,122,306.22Z" style="fill:#ebebeb"></path><path d="M162.44,216.72C152,227,141.52,237.88,135.38,251.34a132.58,132.58,0,0,0-5.48,14.27v0c-.32,1-.64,2-.94,2.94a.34.34,0,0,0-.05.17,280.36,280.36,0,0,0-7,30.59c0,.07.09.1.1,0,1.07-5.16,2.25-10.38,3.56-15.58l.15,0a21.58,21.58,0,0,1,6.51-1.65c.14,0,.13-.27,0-.27a24.24,24.24,0,0,0-6.43,1.18c1.2-4.69,2.5-9.37,4-14a68.8,68.8,0,0,1,14.7-1.92c.05,0,.06-.08,0-.08A55.66,55.66,0,0,0,130,268.25c.26-.79.53-1.57.79-2.36a73.71,73.71,0,0,1,9.78-1.66c.06,0,.06-.11,0-.1a46.73,46.73,0,0,0-9.58,1.16c1.35-4,2.8-7.92,4.42-11.76a71.35,71.35,0,0,1,4.68-9.08A61,61,0,0,1,148,243c.08,0,.07-.12,0-.13a21.59,21.59,0,0,0-7.42.73c1.3-2.1,2.67-4.16,4.14-6.16h0c5.56-1.23,11.19-2.38,16.88-1.31.1,0,.13-.14,0-.17-5.41-1.42-10.78-.6-16.17.46.59-.78,1.19-1.55,1.8-2.32a37.19,37.19,0,0,1,10.38-1.63c.08,0,.09-.11,0-.11a26.81,26.81,0,0,0-9.68.86c4.6-5.71,9.67-11.08,14.69-16.38C162.87,216.62,162.69,216.48,162.44,216.72Z" style="fill:#fff"></path><path d="M162.17,239.3a22,22,0,0,0-4.93-.17c-.2,0-.18.34,0,.35,1.63.05,3.26-.08,4.89,0A.1.1,0,0,0,162.17,239.3Z" style="fill:#fff"></path><path d="M144.33,271.42a22.23,22.23,0,0,0-7.64,1.54c-.06,0,0,.12,0,.11,2.53-.61,5.08-.85,7.63-1.27A.19.19,0,0,0,144.33,271.42Z" style="fill:#fff"></path><path d="M139,260.33a16,16,0,0,0-3.24.29.1.1,0,0,0,0,.19,16.06,16.06,0,0,0,3.25-.15A.17.17,0,0,0,139,260.33Z" style="fill:#fff"></path><path d="M49.33,244.44a112.67,112.67,0,0,1,23,10.85,68.86,68.86,0,0,1,19.19,18.23,170.39,170.39,0,0,1,24.61,49.69,132.89,132.89,0,0,1,5.58,30.3.29.29,0,0,1-.58.05,172,172,0,0,0-15-51.46c-7.51-15.94-17-32.91-31.52-43.46-7.9-5.75-16.78-9.51-25.63-13.49C48.53,244.94,48.86,244.28,49.33,244.44Z" style="fill:#ebebeb"></path><path d="M110.38,311.84A103.4,103.4,0,0,0,92,298.5c-10.24-5.69-18.57-9.44-21.11-14.41s5.37-11.43,5.37-11.43-10.46,5.13-14.8,1.37S48,243.88,48,243.88s24.15,8.59,39.23,26S110.38,311.84,110.38,311.84Z" style="fill:#ebebeb"></path><path d="M109.12,306.39C97,283.72,80.92,263.22,58.84,249.68c0,0,0,0,0,0A111.53,111.53,0,0,1,75,262.34a25.65,25.65,0,0,0-13,2.74c-.09.05,0,.17.07.14A35.41,35.41,0,0,1,75.44,263a.28.28,0,0,0,.15-.06c.78.75,1.55,1.5,2.32,2.27a40.6,40.6,0,0,0-6.94.92c-.06,0,0,.1,0,.09a35.34,35.34,0,0,1,7.33-.6,152.57,152.57,0,0,1,11.39,12.93,11.66,11.66,0,0,0-4.85.35.1.1,0,0,0,0,.19,25.64,25.64,0,0,1,5.18-.08c.66.85,1.33,1.68,2,2.54a46.76,46.76,0,0,0-14.66,1.42c-.07,0,0,.13,0,.11a59.44,59.44,0,0,1,15.06-1c.61.82,1.2,1.66,1.8,2.49a31.71,31.71,0,0,0-8.72,1c-.11,0-.08.2,0,.17a33.38,33.38,0,0,1,9-.7c2.6,3.58,5.09,7.24,7.48,10.94a8.14,8.14,0,0,0-3.83.23.06.06,0,0,0,0,.11,16.38,16.38,0,0,1,4.14.19q3.22,5,6.23,10.13C108.81,306.91,109.28,306.7,109.12,306.39Z" style="fill:#fff"></path><path d="M90.33,287.59a18.79,18.79,0,0,0-7,.86c-.06,0,0,.12,0,.1a54.66,54.66,0,0,1,7-.71C90.47,287.83,90.5,287.6,90.33,287.59Z" style="fill:#fff"></path><path d="M69.27,260a12.13,12.13,0,0,0-3.24.19c-.13,0-.09.21,0,.19,1.06-.11,2.11-.07,3.17-.1C69.42,260.23,69.45,260,69.27,260Z" style="fill:#fff"></path><polygon points="141.52 387.18 87.01 387.18 94.78 330.24 96.77 315.64 131.76 315.64 133.75 330.24 141.52 387.18" style="fill:#dbdbdb"></polygon><polygon points="133.75 330.24 94.78 330.24 96.77 315.64 131.76 315.64 133.75 330.24" style="fill:#c7c7c7"></polygon><rect x="91.77" y="310.58" width="45" height="12.36" style="fill:#dbdbdb"></rect><rect x="434.79" y="208.44" width="26.48" height="11.19" transform="translate(896.07 428.07) rotate(180)" style="fill:#ebebeb"></rect><rect x="449.56" y="194.33" width="26.48" height="11.19" transform="translate(925.61 399.85) rotate(180)" style="fill:#ebebeb"></rect><rect x="420.02" y="194.33" width="26.48" height="11.19" transform="translate(866.52 399.85) rotate(180)" style="fill:#ebebeb"></rect><rect x="38.73" y="352.76" width="26.48" height="11.19" transform="translate(103.93 716.71) rotate(180)" style="fill:#ebebeb"></rect><rect x="23.96" y="338.65" width="26.48" height="11.19" transform="translate(74.39 688.49) rotate(180)" style="fill:#ebebeb"></rect><rect x="449.56" y="352.75" width="26.48" height="11.19" transform="translate(925.61 716.69) rotate(180)" style="fill:#ebebeb"></rect><rect x="112.43" y="101.68" width="26.48" height="11.19" style="fill:#ebebeb"></rect><rect x="97.65" y="115.79" width="26.48" height="11.19" style="fill:#ebebeb"></rect></g><g id="freepik--Shadow--inject-2"><ellipse cx="259.65" cy="434.98" rx="198.01" ry="28.49" style="fill:#ebebeb"></ellipse></g><g id="freepik--Floor--inject-2"><path d="M51.94,387.18c126.89-.62,269.23-.62,396.12,0-126.89.61-269.23.61-396.12,0Z" style="fill:#263238"></path></g><g id="freepik--Device--inject-2"><path d="M350.15,73.61v322a17,17,0,0,1-16.87,17.17H166.71a17,17,0,0,1-16.86-17.17v-322a17,17,0,0,1,16.86-17.16H333.28A17,17,0,0,1,350.15,73.61Z" style="fill:#263238"></path><path d="M339.61,89.78V385c0,9-6.76,16.33-15.09,16.33h-149c-8.35,0-15.11-7.31-15.11-16.33V89.78c0-18.39,6.76-22.45,15.11-22.45h29.85c1.73,0,3.15,2,3.15,4.4v1c0,5.74,3.13,5.76,7,5.76h69c3.87,0,7,0,7-5.76v-1c0-2.44,1.39-4.4,3.15-4.4h29.86C332.85,67.33,339.61,72.94,339.61,89.78Z" style="fill:#fff"></path><path d="M259.41,71.39H240.58a1.16,1.16,0,0,1-1.16-1.17h0a1.16,1.16,0,0,1,1.16-1.16h18.83a1.16,1.16,0,0,1,1.17,1.16h0A1.17,1.17,0,0,1,259.41,71.39Z" style="fill:#fff"></path><path d="M321.28,198.71l.2,79.9a8.08,8.08,0,0,1-8.06,8.11l-126.72.33a8.1,8.1,0,0,1-8.11-8.07l-.2-79.9a7.53,7.53,0,0,1,7.5-7.55l127.84-.33A7.53,7.53,0,0,1,321.28,198.71Z" style="fill:#455a64"></path><rect x="190.44" y="205.21" width="26.82" height="18.54" rx="4.2" transform="translate(-0.56 0.53) rotate(-0.15)" style="fill:#B3D692"></rect><path d="M304.8,215.11l-12.14,0a5.07,5.07,0,0,1-5.09-5.07h0a5.07,5.07,0,0,1,5.07-5.09l12.13,0a5.1,5.1,0,0,1,5.1,5.07h0A5.08,5.08,0,0,1,304.8,215.11Z" style="fill:#fff"></path><path d="M189.52,240.68l-1.1.65a.27.27,0,0,1-.37-.09.26.26,0,0,1,.1-.37l1.5-.91a.29.29,0,0,1,.37.1.34.34,0,0,1,0,.2l0,7.14a.27.27,0,0,1-.53,0Z" style="fill:#f8f8f8"></path><path d="M192,247.19l3.62-3.29a2,2,0,0,0,.67-1.49,1.94,1.94,0,0,0-.53-1.33,2,2,0,0,0-1.48-.66,2,2,0,0,0-1.35.52l-.38.34a.25.25,0,0,1-.38,0,.25.25,0,0,1,0-.37l.38-.36a2.58,2.58,0,0,1,1.72-.66,2.55,2.55,0,0,1,2.54,2.53,2.54,2.54,0,0,1-.83,1.89l-3.1,2.82h3.68a.27.27,0,0,1,.26.28.26.26,0,0,1-.26.26l-4.34,0h0a.26.26,0,0,1-.2-.08A.29.29,0,0,1,192,247.19Z" style="fill:#f8f8f8"></path><path d="M203.23,240.35l-2,2.07a2.63,2.63,0,0,1,1.34,4.44,2.67,2.67,0,0,1-1.87.78,2.55,2.55,0,0,1-1.86-.77.28.28,0,0,1,.39-.39,2.08,2.08,0,0,0,1.47.6,2.11,2.11,0,0,0,1.47-.61,2.07,2.07,0,0,0,.61-1.48,2,2,0,0,0-.61-1.46,2.05,2.05,0,0,0-1.47-.61.27.27,0,0,1-.22-.11h0a.28.28,0,0,1,0-.4l1.93-2h-3a.27.27,0,0,1-.27-.28.26.26,0,0,1,.27-.27H203a.28.28,0,0,1,.28.27.28.28,0,0,1,0,.13A.41.41,0,0,1,203.23,240.35Z" style="fill:#f8f8f8"></path><path d="M209.77,246h-4.24a.25.25,0,0,1-.17-.05.26.26,0,0,1,0-.38l4.48-5.62h0a.26.26,0,0,1,.38,0,.28.28,0,0,1,.09.13s0,0,0,.05v0l0,5.33h.52a.27.27,0,1,1,0,.54h-.52v1.33a.27.27,0,0,1-.28.27.27.27,0,0,1-.26-.27Zm0-.53v-4.56l-3.67,4.57Z" style="fill:#f8f8f8"></path><path d="M219.53,246.83a.26.26,0,0,1,0-.39.28.28,0,0,1,.4,0,2.09,2.09,0,0,0,3.55-1.49,2.1,2.1,0,0,0-.61-1.48,2.1,2.1,0,0,0-2.94,0,.27.27,0,0,1-.39,0,.13.13,0,0,1-.07-.09h0a0,0,0,0,1,0,0,.25.25,0,0,1,0-.09.43.43,0,0,0,0-.05l.37-3.14a.22.22,0,0,1,.11-.2.23.23,0,0,1,.18-.07h3.62a.27.27,0,0,1,.28.28.27.27,0,0,1-.28.28h-3.39l-.27,2.31a2.67,2.67,0,0,1,1.32-.36A2.61,2.61,0,0,1,224,245a2.61,2.61,0,0,1-.76,1.87,2.7,2.7,0,0,1-1.87.77A2.63,2.63,0,0,1,219.53,246.83Z" style="fill:#f8f8f8"></path><path d="M226.92,241.5a3.16,3.16,0,0,1,2.72-1.7.27.27,0,0,1,.28.25.29.29,0,0,1-.27.29,2.65,2.65,0,0,0-2.26,1.42,5,5,0,0,0-.55,1.56,2.51,2.51,0,0,1,1.92-.88,2.57,2.57,0,1,1-2.56,2.66,2.85,2.85,0,0,1,0-.51A6.42,6.42,0,0,1,226.92,241.5Zm-.18,3.55a.68.68,0,0,0,0,.15.15.15,0,0,1,0,.07,2.08,2.08,0,1,0,0-.26Z" style="fill:#f8f8f8"></path><path d="M234.18,247.18l2.86-6.83h-3.76a.27.27,0,0,1,0-.54h4.11a.32.32,0,0,1,.17,0,.35.35,0,0,1,.15.17.24.24,0,0,1,0,.09.19.19,0,0,1,0,.14l-3,7.17a.27.27,0,0,1-.24.17.14.14,0,0,1-.11,0A.28.28,0,0,1,234.18,247.18Z" style="fill:#f8f8f8"></path><path d="M241.85,239.76a1.62,1.62,0,0,1,1,2.92,2.52,2.52,0,1,1-3.47,2.34,2.55,2.55,0,0,1,1.55-2.34,1.63,1.63,0,0,1-.65-1.31A1.6,1.6,0,0,1,241.85,239.76Zm0,7.24a2,2,0,0,0,0-4,2,2,0,0,0-2,2A2,2,0,0,0,241.87,247Zm0-4.53a1.12,1.12,0,0,0,1.09-1.11,1.09,1.09,0,0,0-2.17,0A1.1,1.1,0,0,0,241.85,242.47Z" style="fill:#f8f8f8"></path><path d="M255.68,239.72a2.56,2.56,0,0,1,2.56,2.26l0,.06,0,.66a6.51,6.51,0,0,1-.74,3.11,3.2,3.2,0,0,1-2.72,1.69h0a.26.26,0,0,1-.28-.25.28.28,0,0,1,.27-.29,2.66,2.66,0,0,0,2.26-1.42,4.83,4.83,0,0,0,.55-1.56,2.5,2.5,0,0,1-1.93.86,2.56,2.56,0,1,1,0-5.12Zm2,2.55a2,2,0,1,0-2,2A2,2,0,0,0,257.72,242.27Z" style="fill:#f8f8f8"></path><path d="M260.24,243.6a5,5,0,0,1,.74-2.73,2.4,2.4,0,0,1,1.94-1.17,2.45,2.45,0,0,1,1.95,1.16,5,5,0,0,1,.76,2.72,5,5,0,0,1-.75,2.72,2.2,2.2,0,0,1-3.89,0A4.88,4.88,0,0,1,260.24,243.6Zm.54,0a4.42,4.42,0,0,0,.67,2.41,1.65,1.65,0,0,0,3,0,4.64,4.64,0,0,0,0-4.82,1.66,1.66,0,0,0-3,0A4.43,4.43,0,0,0,260.78,243.6Z" style="fill:#f8f8f8"></path><path d="M269.22,240.47l-1.1.65a.29.29,0,0,1-.13,0,.29.29,0,0,1-.24-.14.25.25,0,0,1,.1-.36l1.5-.92a.29.29,0,0,1,.37.1.35.35,0,0,1,0,.2l0,7.15a.27.27,0,0,1-.53,0Z" style="fill:#f8f8f8"></path><path d="M271.68,247l3.62-3.29a2,2,0,0,0,.67-1.49,2,2,0,0,0-.53-1.33,2,2,0,0,0-1.48-.65,2,2,0,0,0-1.35.51l-.38.35a.27.27,0,0,1-.37-.39l.38-.36a2.63,2.63,0,0,1,1.72-.66,2.49,2.49,0,0,1,1.87.83,2.46,2.46,0,0,1,.67,1.7,2.54,2.54,0,0,1-.83,1.89l-3.1,2.82h3.68a.27.27,0,0,1,.26.28.27.27,0,0,1-.26.27h-4.38a.23.23,0,0,1-.2-.08A.29.29,0,0,1,271.68,247Z" style="fill:#f8f8f8"></path><path d="M289.59,240.12l-2,2.07a2.59,2.59,0,0,1,1.33.71,2.64,2.64,0,0,1,.77,1.87,2.59,2.59,0,0,1-.77,1.87,2.65,2.65,0,0,1-1.87.78,2.59,2.59,0,0,1-1.85-.77.26.26,0,0,1,0-.39.27.27,0,0,1,.39,0,2.09,2.09,0,0,0,3.56-1.49,2,2,0,0,0-.62-1.47,2,2,0,0,0-1.47-.6.29.29,0,0,1-.22-.12h0a.28.28,0,0,1,0-.4l1.93-2h-3a.27.27,0,0,1-.28-.28.28.28,0,0,1,.28-.28h3.63a.27.27,0,0,1,.28.28.24.24,0,0,1,0,.12A.28.28,0,0,1,289.59,240.12Z" style="fill:#f8f8f8"></path><path d="M296.14,245.8h-4.25a.2.2,0,0,1-.16-.06.25.25,0,0,1,0-.38l4.49-5.61h0a.26.26,0,0,1,.38,0,.67.67,0,0,1,.09.14s0,0,0,0v5.37h.52a.27.27,0,1,1,0,.53h-.52v1.34a.29.29,0,0,1-.28.27.28.28,0,0,1-.27-.27Zm0-.54,0-4.56-3.66,4.57Z" style="fill:#f8f8f8"></path><path d="M299.23,246.62a.26.26,0,0,1,0-.39.28.28,0,0,1,.4,0,2.12,2.12,0,0,0,1.47.6,2.08,2.08,0,1,0,0-4.16,2,2,0,0,0-1.47.62.27.27,0,0,1-.39,0,.18.18,0,0,1-.07-.09h0a.06.06,0,0,1,0,0,.22.22,0,0,1,0-.09.43.43,0,0,0,0-.05l.37-3.14a.23.23,0,0,1,.11-.2.26.26,0,0,1,.18-.06h3.62a.27.27,0,0,1,.28.27.27.27,0,0,1-.28.28H300l-.27,2.31a2.78,2.78,0,0,1,1.32-.36,2.63,2.63,0,0,1,2.63,2.63,2.61,2.61,0,0,1-.76,1.87,2.7,2.7,0,0,1-1.87.77A2.63,2.63,0,0,1,299.23,246.62Z" style="fill:#f8f8f8"></path><path d="M306.62,241.29a3.16,3.16,0,0,1,2.72-1.7.28.28,0,0,1,.28.26.29.29,0,0,1-.27.29,2.62,2.62,0,0,0-2.26,1.41,5.08,5.08,0,0,0-.55,1.56,2.56,2.56,0,1,1-.64,1.78,2.8,2.8,0,0,1,0-.51A6.44,6.44,0,0,1,306.62,241.29Zm-.18,3.56a.59.59,0,0,0,0,.14.19.19,0,0,1,0,.08,2.09,2.09,0,1,0,0-.27Z" style="fill:#f8f8f8"></path><rect x="190.56" y="260.93" width="67.86" height="3.33" transform="translate(-0.68 0.58) rotate(-0.15)" style="fill:#263238"></rect><rect x="190.58" y="268.36" width="48.04" height="3.33" transform="translate(-0.7 0.56) rotate(-0.15)" style="fill:#263238"></rect><rect x="249.05" y="205.05" width="33.84" height="3.33" transform="matrix(1, 0, 0, 1, -0.54, 0.69)" style="fill:#263238"></rect><path d="M179.47,175.31a.26.26,0,0,1,.25-.25h2.07a2.09,2.09,0,0,1,0,4.17l-1.81,0v2.87a.26.26,0,0,1-.26.25.26.26,0,0,1-.25-.25Zm2.32,3.43a1.59,1.59,0,0,0,0-3.17H180v3.17Z" style="fill:#263238"></path><path d="M189.74,177.51v4.61a.26.26,0,0,1-.25.25.25.25,0,0,1-.25-.25v-.76a2.41,2.41,0,0,1-1.92,1,2.56,2.56,0,0,1,0-5.12,2.38,2.38,0,0,1,1.92,1v-.75a.25.25,0,0,1,.25-.26A.26.26,0,0,1,189.74,177.51Zm-.5,2.3a1.92,1.92,0,1,0-1.92,2.06A2,2,0,0,0,189.24,179.81Z" style="fill:#263238"></path><path d="M191.81,177.49a.24.24,0,0,1,.24-.24.25.25,0,0,1,.26.24v2.78a1.57,1.57,0,0,0,1.56,1.58,1.59,1.59,0,0,0,1.59-1.58v-2.78a.17.17,0,0,1,0-.12v0h0a.3.3,0,0,1,.1-.07h.11l.13.06a.24.24,0,0,1,.06.08.19.19,0,0,1,0,.1V182a2.4,2.4,0,0,1-2.43,2.4,2.45,2.45,0,0,1-1.05-.24.25.25,0,0,1-.11-.33.26.26,0,0,1,.32-.13,1.89,1.89,0,0,0,.84.2,1.91,1.91,0,0,0,1.93-1.9v-.33a2.12,2.12,0,0,1-1.59.73,2.09,2.09,0,0,1-2.06-2.09Z" style="fill:#263238"></path><path d="M205.69,179.34a1.58,1.58,0,1,0-3.16,0v2.86a.28.28,0,0,1-.12.14l-.13,0h-.07l-.07,0,0,0,0,0s0,0,0,0v0a0,0,0,0,0,0,0v-2.84a1.58,1.58,0,1,0-3.15,0v2.79a.22.22,0,0,1-.12.2l-.06,0h-.1a.26.26,0,0,1-.21-.19v-4.67a.25.25,0,1,1,.49,0V178a2,2,0,0,1,1.57-.74,2.06,2.06,0,0,1,1.83,1.09,2.12,2.12,0,0,1,1.84-1.09,2.08,2.08,0,0,1,2.08,2.08v2.79a.25.25,0,0,1-.26.24.25.25,0,0,1-.24-.24Z" style="fill:#263238"></path><path d="M207.94,179.82a2.48,2.48,0,0,1,4.95-.19h0v0a.24.24,0,0,1-.25.23h-4.19a2,2,0,0,0,2,2,1.94,1.94,0,0,0,1.65-.93.23.23,0,0,1,.33-.08.26.26,0,0,1,.09.35,2.44,2.44,0,0,1-2.07,1.16A2.52,2.52,0,0,1,207.94,179.82Zm.54-.41h3.87a2,2,0,0,0-1.92-1.65A2,2,0,0,0,208.48,179.41Z" style="fill:#263238"></path><path d="M218.32,179.34a1.57,1.57,0,0,0-1.57-1.57,1.6,1.6,0,0,0-1.59,1.57v2.82a.31.31,0,0,1,0,.12.23.23,0,0,1-.19.09h-.06a.26.26,0,0,1-.17-.14,0,0,0,0,1,0,0v-4.68a.25.25,0,1,1,.49,0V178a2.07,2.07,0,0,1,3.66,1.33v2.78a.25.25,0,0,1-.25.25.25.25,0,0,1-.25-.25Z" style="fill:#263238"></path><path d="M222.86,177.51a.28.28,0,0,1-.25.25H222v3.72a.4.4,0,0,0,.38.38.26.26,0,1,1,0,.51.87.87,0,0,1-.9-.89v-3.72h-.64c-.25,0-.25-.13-.25-.25s0-.26.25-.26h.64v-1.9a.27.27,0,0,1,.25-.25.29.29,0,0,1,.27.25v1.9h.66A.28.28,0,0,1,222.86,177.51Z" style="fill:#263238"></path><path d="M235.7,179.34a1.61,1.61,0,0,0-1.59-1.58,1.59,1.59,0,0,0-1.57,1.58v2.86a.29.29,0,0,1-.13.14.27.27,0,0,1-.12,0h-.08l-.06,0,0,0,0,0s0,0,0,0v0a0,0,0,0,0,0,0v-2.84a1.58,1.58,0,1,0-3.16,0v2.79a.23.23,0,0,1-.11.2l-.06,0h-.11a.28.28,0,0,1-.21-.19v-4.67a.25.25,0,0,1,.24-.25.24.24,0,0,1,.25.25V178a2.06,2.06,0,0,1,1.58-.74,2.09,2.09,0,0,1,1.83,1.09,2.1,2.1,0,0,1,1.83-1.09,2.08,2.08,0,0,1,2.08,2.08v2.79a.25.25,0,0,1-.25.24.25.25,0,0,1-.24-.24Z" style="fill:#263238"></path><path d="M238,179.82a2.48,2.48,0,0,1,5-.19h0v0a.24.24,0,0,1-.25.23h-4.2a2,2,0,0,0,2,2,1.92,1.92,0,0,0,1.64-.93.24.24,0,0,1,.34-.08.26.26,0,0,1,.08.35,2.44,2.44,0,0,1-2.06,1.16A2.52,2.52,0,0,1,238,179.82Zm.53-.41h3.88a2,2,0,0,0-1.92-1.65A2,2,0,0,0,238.48,179.41Z" style="fill:#263238"></path><path d="M246,177.51a.27.27,0,0,1-.25.25h-.65v3.72a.4.4,0,0,0,.37.38.26.26,0,1,1,0,.51.88.88,0,0,1-.9-.89v-3.72H244c-.25,0-.25-.13-.25-.25s0-.26.25-.26h.63v-1.9a.28.28,0,0,1,.25-.25.29.29,0,0,1,.28.25v1.9h.65A.27.27,0,0,1,246,177.51Z" style="fill:#263238"></path><path d="M252,179.27a1.63,1.63,0,0,0-3.25,0v2.88s0,0,0,0,0,0,0,0a.23.23,0,0,1-.16.13h-.07a.3.3,0,0,1-.2-.08l0-.09a.22.22,0,0,1,0-.08v-6.81a.25.25,0,0,1,.25-.25.26.26,0,0,1,.26.25V178a2.12,2.12,0,0,1,1.62-.76,2,2,0,0,1,2.14,2v2.85a.26.26,0,0,1-.26.25.25.25,0,0,1-.25-.25Z" style="fill:#263238"></path><path d="M256.81,177.25a2.56,2.56,0,1,1-2.42,2.56A2.5,2.5,0,0,1,256.81,177.25Zm0,4.62a2.07,2.07,0,1,0-1.92-2.06A2,2,0,0,0,256.81,181.87Z" style="fill:#263238"></path><path d="M265.25,181.38a2.45,2.45,0,0,1-2,1,2.56,2.56,0,0,1,0-5.12,2.44,2.44,0,0,1,2,1v-2.95a.26.26,0,0,1,.51,0v6.81a.26.26,0,0,1-.51,0Zm0-1.47v-.17a2,2,0,1,0,0,.17Z" style="fill:#263238"></path><path d="M181.36,126.41h-2.2a.25.25,0,0,1-.25-.26.25.25,0,0,1,.25-.25h4.91a.26.26,0,0,1,.25.25.26.26,0,0,1-.25.26h-2.21V133a.25.25,0,0,1-.25.25.25.25,0,0,1-.25-.25Z" style="fill:#263238"></path><path d="M186.9,128.1a2.56,2.56,0,1,1-2.42,2.55A2.5,2.5,0,0,1,186.9,128.1Zm0,4.61a2.07,2.07,0,1,0-1.92-2.06A2,2,0,0,0,186.9,132.71Z" style="fill:#263238"></path><path d="M192.83,128.35a.27.27,0,0,1-.25.25h-.66v3.72a.4.4,0,0,0,.38.38.29.29,0,0,1,.26.26.28.28,0,0,1-.26.25.88.88,0,0,1-.9-.89V128.6h-.64c-.25,0-.25-.13-.25-.25s0-.25.25-.25h.64v-1.9a.27.27,0,0,1,.25-.25.27.27,0,0,1,.27.25v1.9h.66A.26.26,0,0,1,192.83,128.35Z" style="fill:#263238"></path><path d="M199.2,128.35V133a.25.25,0,0,1-.5,0v-.76a2.41,2.41,0,0,1-1.92,1,2.56,2.56,0,0,1,0-5.11,2.37,2.37,0,0,1,1.92,1v-.75a.25.25,0,1,1,.5,0Zm-.5,2.3a1.92,1.92,0,1,0-1.92,2.06A2,2,0,0,0,198.7,130.65Z" style="fill:#263238"></path><path d="M201.59,126.15a.26.26,0,0,1,.25-.25.27.27,0,0,1,.27.25V133a.26.26,0,0,1-.27.25.25.25,0,0,1-.25-.25Z" style="fill:#263238"></path><path d="M207.26,130.74v-2.39a.25.25,0,0,1,.25-.25.26.26,0,0,1,.26.25v.74a2.38,2.38,0,0,1,1.94-1,2.54,2.54,0,0,1,0,5.08,2.39,2.39,0,0,1-1.94-1v2.92a.26.26,0,0,1-.26.25.25.25,0,0,1-.25-.25Zm.51-.11a2,2,0,1,0,3.9,0,2,2,0,1,0-3.9-.08Z" style="fill:#263238"></path><path d="M214.15,128.36a.25.25,0,1,1,.5,0v1.12a.75.75,0,0,1,.07-.12,2.47,2.47,0,0,1,2.05-1.25.25.25,0,0,1,.25.25.26.26,0,0,1-.25.25,1.82,1.82,0,0,0-1.48.83,4.37,4.37,0,0,0-.62,1.19.16.16,0,0,0,0,.09V133a.25.25,0,1,1-.5,0Z" style="fill:#263238"></path><path d="M218.74,126.68a.25.25,0,0,1,.25-.25.25.25,0,0,1,.26.25v.24a.27.27,0,0,1-.26.27.27.27,0,0,1-.25-.27Zm0,1.67a.25.25,0,0,1,.25-.25.24.24,0,0,1,.26.25V133a.25.25,0,0,1-.26.25.25.25,0,0,1-.25-.25Z" style="fill:#263238"></path><path d="M221.3,130.64a2.64,2.64,0,0,1,4.26-2,.22.22,0,0,1,0,.34.25.25,0,0,1-.34.05,2.08,2.08,0,1,0-1.32,3.66,2.19,2.19,0,0,0,1.32-.45.26.26,0,0,1,.34,0,.24.24,0,0,1-.05.37,2.66,2.66,0,0,1-1.61.54A2.58,2.58,0,0,1,221.3,130.64Z" style="fill:#263238"></path><path d="M227.11,130.66a2.48,2.48,0,0,1,4.95-.18h0v0a.24.24,0,0,1-.25.23h-4.2a2,2,0,0,0,2,2,1.93,1.93,0,0,0,1.65-.93.24.24,0,0,1,.34-.08.27.27,0,0,1,.08.35,2.44,2.44,0,0,1-2.07,1.16A2.52,2.52,0,0,1,227.11,130.66Zm.53-.4h3.87a2,2,0,0,0-1.92-1.66A2,2,0,0,0,227.64,130.26Z" style="fill:#263238"></path><path d="M185.43,140a.9.9,0,0,1,.9.9v.46a7.66,7.66,0,0,1,3.24,1.15,1.12,1.12,0,0,1,.62,1,1.15,1.15,0,0,1-1.17,1.15,1.12,1.12,0,0,1-.62-.19,7.79,7.79,0,0,0-2.16-.92v4c3.18.8,4.54,2.07,4.54,4.31s-1.8,3.82-4.45,4.07v1.26a.89.89,0,0,1-.9.89.91.91,0,0,1-.92-.89v-1.3a9,9,0,0,1-4.28-1.63,1.15,1.15,0,0,1,.58-2.15,1.12,1.12,0,0,1,.69.23,7.4,7.4,0,0,0,3.09,1.4v-4.12c-3.05-.79-4.47-1.94-4.47-4.3s1.78-3.78,4.39-4v-.44A.91.91,0,0,1,185.43,140Zm-.84,7.13v-3.7c-1.33.12-2,.83-2,1.75S183,146.56,184.59,147.09Zm1.65,2.9v3.8c1.34-.14,2.07-.81,2.07-1.82S187.85,150.49,186.24,150Z" style="fill:#B3D692"></path><path d="M202.72,150.93a5,5,0,1,1-7.75-4.16,3.35,3.35,0,0,1-.69-2.07,3.45,3.45,0,0,1,6.9,0,3.35,3.35,0,0,1-.69,2.07A5,5,0,0,1,202.72,150.93Zm-2.27,0a2.73,2.73,0,0,0-2.7-2.72,2.71,2.71,0,1,0,0,5.41A2.7,2.7,0,0,0,200.45,150.93Zm-3.89-6.23a1.17,1.17,0,1,0,2.34,0,1.17,1.17,0,0,0-2.34,0Z" style="fill:#B3D692"></path><path d="M206,146.33a5.07,5.07,0,0,1,10.12-.52s0,0,0,0c0,.4,0,.8,0,1.19a12.33,12.33,0,0,1-.73,4.29,7.34,7.34,0,0,1-2.7,3.57,6,6,0,0,1-3.13,1,1.16,1.16,0,0,1-1.21-1.11,1.2,1.2,0,0,1,1.12-1.21,3.85,3.85,0,0,0,2-.58,4.27,4.27,0,0,0,1.31-1.47,3.91,3.91,0,0,0,.28-.54,5,5,0,0,1-2,.42A5.07,5.07,0,0,1,206,146.33Zm2.32,0a2.75,2.75,0,1,0,5.5,0,2.75,2.75,0,0,0-5.5,0Z" style="fill:#B3D692"></path><path d="M219.46,157.78a1.8,1.8,0,0,0,1.42-1.88,1.53,1.53,0,0,1-1.2-1.42v-.17a1.36,1.36,0,0,1,1.43-1.4c.94,0,1.5.71,1.5,1.84V155a4.19,4.19,0,0,1-1,3.05,3.15,3.15,0,0,1-2,.9.58.58,0,0,1-.65-.58A.59.59,0,0,1,219.46,157.78Z" style="fill:#B3D692"></path><path d="M224,146.33a5.07,5.07,0,0,1,10.11-.52s0,0,0,0c0,.4,0,.8,0,1.19a12.1,12.1,0,0,1-.73,4.29,7.32,7.32,0,0,1-2.69,3.57,6,6,0,0,1-3.14,1,1.17,1.17,0,0,1-1.21-1.11,1.21,1.21,0,0,1,1.13-1.21,3.84,3.84,0,0,0,2-.58,4.19,4.19,0,0,0,1.32-1.47,3,3,0,0,0,.27-.54,4.91,4.91,0,0,1-2,.42A5.07,5.07,0,0,1,224,146.33Zm2.32,0a2.75,2.75,0,1,0,5.49,0,2.75,2.75,0,0,0-5.49,0Z" style="fill:#B3D692"></path><path d="M237.44,146.33a5.07,5.07,0,0,1,10.11-.52s0,0,0,0c0,.4.05.8.05,1.19a12.11,12.11,0,0,1-.74,4.29,7.26,7.26,0,0,1-2.69,3.57,6,6,0,0,1-3.13,1,1.17,1.17,0,0,1-1.22-1.11,1.21,1.21,0,0,1,1.13-1.21,3.88,3.88,0,0,0,2-.58,4.27,4.27,0,0,0,1.31-1.47,3,3,0,0,0,.27-.54,4.91,4.91,0,0,1-2,.42A5.07,5.07,0,0,1,237.44,146.33Zm2.32,0a2.75,2.75,0,1,0,5.49,0,2.75,2.75,0,0,0-5.49,0Z" style="fill:#B3D692"></path><path d="M214.83,98.3a.25.25,0,0,1,.25-.25h2.06a2.08,2.08,0,1,1,0,4.16l-1.8,0v2.87a.26.26,0,0,1-.26.26.26.26,0,0,1-.25-.26Zm2.31,3.42a1.58,1.58,0,1,0,0-3.16h-1.8v3.16Z" style="fill:#263238"></path><path d="M225.09,100.49v4.61a.26.26,0,0,1-.25.26.26.26,0,0,1-.25-.26v-.76a2.39,2.39,0,0,1-1.92,1,2.56,2.56,0,0,1,0-5.12,2.4,2.4,0,0,1,1.92,1v-.75a.25.25,0,0,1,.25-.25A.24.24,0,0,1,225.09,100.49Zm-.5,2.31a1.92,1.92,0,1,0-1.92,2A2,2,0,0,0,224.59,102.8Z" style="fill:#263238"></path><path d="M227.16,100.48a.25.25,0,0,1,.5,0v2.78a1.58,1.58,0,0,0,3.15,0v-2.78a.24.24,0,0,1,.05-.13s0,0,0,0h0a.18.18,0,0,1,.09-.06h.12l.12.05a.2.2,0,0,1,.06.09.14.14,0,0,1,0,.1V105a2.42,2.42,0,0,1-2.44,2.4,2.65,2.65,0,0,1-1-.24.25.25,0,0,1-.1-.34.27.27,0,0,1,.32-.12,2,2,0,0,0,.83.2,1.92,1.92,0,0,0,1.93-1.9v-.34a2.07,2.07,0,0,1-3.65-1.35Z" style="fill:#263238"></path><path d="M241.05,102.33a1.61,1.61,0,0,0-1.59-1.59,1.59,1.59,0,0,0-1.57,1.59v2.82l0,0v0a.25.25,0,0,1-.12.13.28.28,0,0,1-.13,0h-.05s0,0,0,0,0,0-.06,0l0,0,0,0,0,0,0,0a0,0,0,0,0,0,0,0,0,0,0,0,0,0v-2.84a1.58,1.58,0,1,0-3.15,0v2.78a.22.22,0,0,1-.11.2l-.07,0s0,0,0,0h-.06a.31.31,0,0,1-.21-.19v-4.68a.24.24,0,0,1,.24-.24.23.23,0,0,1,.25.24V101a2.07,2.07,0,0,1,3.4.36,2.13,2.13,0,0,1,1.84-1.09,2.08,2.08,0,0,1,2.08,2.08v2.78a.25.25,0,0,1-.25.25.25.25,0,0,1-.24-.25Z" style="fill:#263238"></path><path d="M243.3,102.81a2.48,2.48,0,0,1,4.95-.19h0v0a.24.24,0,0,1-.25.23h-4.2a2,2,0,0,0,2,2,1.92,1.92,0,0,0,1.65-.92.25.25,0,0,1,.34-.09.28.28,0,0,1,.08.36,2.44,2.44,0,0,1-2.07,1.16A2.51,2.51,0,0,1,243.3,102.81Zm.53-.41h3.87a2,2,0,0,0-1.92-1.66A2,2,0,0,0,243.83,102.4Z" style="fill:#263238"></path><path d="M253.68,102.33a1.58,1.58,0,0,0-1.58-1.58,1.61,1.61,0,0,0-1.59,1.58v2.82a.22.22,0,0,1,0,.11.23.23,0,0,1-.19.1h-.06a.32.32,0,0,1-.16-.14s0,0,0,0V100.5a.25.25,0,0,1,.25-.25.25.25,0,0,1,.24.25V101a2.08,2.08,0,0,1,3.67,1.34v2.77a.26.26,0,0,1-.25.26.25.25,0,0,1-.25-.26Z" style="fill:#263238"></path><path d="M258.21,100.49a.26.26,0,0,1-.25.25h-.66v3.73a.39.39,0,0,0,.38.37.3.3,0,0,1,.26.26.29.29,0,0,1-.26.26.88.88,0,0,1-.9-.89v-3.73h-.64c-.25,0-.25-.12-.25-.25s0-.25.25-.25h.64v-1.9a.27.27,0,0,1,.25-.25.27.27,0,0,1,.27.25v1.9H258A.27.27,0,0,1,258.21,100.49Z" style="fill:#263238"></path><path d="M264.12,105.36h0a.27.27,0,0,1-.23-.26V98.3a.25.25,0,0,1,.25-.25h1.37a3.66,3.66,0,0,1,0,7.31Zm1.35-.52a3.14,3.14,0,1,0,0-6.28h-1.11v6.28Z" style="fill:#263238"></path><path d="M274.6,100.49v4.61a.26.26,0,0,1-.25.26.26.26,0,0,1-.25-.26v-.76a2.39,2.39,0,0,1-1.93,1,2.56,2.56,0,0,1,0-5.12,2.4,2.4,0,0,1,1.93,1v-.75a.24.24,0,0,1,.25-.25A.25.25,0,0,1,274.6,100.49Zm-.5,2.31a1.93,1.93,0,1,0-1.93,2A2,2,0,0,0,274.1,102.8Z" style="fill:#263238"></path><path d="M278.56,100.49a.27.27,0,0,1-.25.25h-.66v3.73a.39.39,0,0,0,.37.37.3.3,0,0,1,.27.26.29.29,0,0,1-.27.26.87.87,0,0,1-.89-.89v-3.73h-.64c-.25,0-.25-.12-.25-.25s0-.25.25-.25h.64v-1.9a.26.26,0,0,1,.25-.25.28.28,0,0,1,.27.25v1.9h.66A.28.28,0,0,1,278.56,100.49Z" style="fill:#263238"></path><path d="M284.93,100.49v4.61a.26.26,0,0,1-.25.26.26.26,0,0,1-.25-.26v-.76a2.39,2.39,0,0,1-1.93,1,2.56,2.56,0,0,1,0-5.12,2.4,2.4,0,0,1,1.93,1v-.75a.24.24,0,0,1,.25-.25A.25.25,0,0,1,284.93,100.49Zm-.5,2.31a1.93,1.93,0,1,0-1.93,2A2,2,0,0,0,284.43,102.8Z" style="fill:#263238"></path><polygon points="184.04 104.69 180.59 101.46 184.04 98.22 184.75 98.98 182.11 101.46 184.75 103.93 184.04 104.69" style="fill:#B3D692"></polygon><path d="M183.46,107.05a5.6,5.6,0,1,1,5.6-5.59A5.6,5.6,0,0,1,183.46,107.05Zm0-10.14a4.55,4.55,0,1,0,4.55,4.55A4.55,4.55,0,0,0,183.46,96.91Z" style="fill:#B3D692"></path><circle cx="316.51" cy="286.09" r="11.27" style="fill:#B3D692"></circle><polygon points="313.3 293.31 309.08 286.72 310.84 285.6 313.49 289.74 321.75 279.41 323.38 280.71 313.3 293.31" style="fill:#fff"></polygon><path d="M253.23,297.89a3.3,3.3,0,1,1-3.29-3.29A3.29,3.29,0,0,1,253.23,297.89Z" style="fill:#B3D692"></path><path d="M234.68,297.89a2.43,2.43,0,1,1-2.43-2.43A2.43,2.43,0,0,1,234.68,297.89Z" style="fill:#ebebeb"></path><path d="M270.18,297.89a2.43,2.43,0,1,1-2.43-2.43A2.43,2.43,0,0,1,270.18,297.89Z" style="fill:#ebebeb"></path><path d="M179.14,321.11a.22.22,0,0,1,.32,0,4,4,0,0,0,2.4.94,2.77,2.77,0,0,0,1.61-.48,1.34,1.34,0,0,0,.63-1.08,1.18,1.18,0,0,0-.6-1,4.67,4.67,0,0,0-1.69-.59h0a4.53,4.53,0,0,1-1.72-.62,1.51,1.51,0,0,1-.75-1.27,1.72,1.72,0,0,1,.76-1.37,3,3,0,0,1,1.76-.53,4,4,0,0,1,2.26.85.23.23,0,0,1,.06.32.21.21,0,0,1-.31.06,3.69,3.69,0,0,0-2-.77,2.63,2.63,0,0,0-1.49.44,1.24,1.24,0,0,0-.57,1,1,1,0,0,0,.54.89,4.16,4.16,0,0,0,1.56.55h0a5.1,5.1,0,0,1,1.85.67,1.64,1.64,0,0,1,.81,1.38,1.86,1.86,0,0,1-.83,1.46,3.25,3.25,0,0,1-1.88.57,4.58,4.58,0,0,1-2.69-1.05A.26.26,0,0,1,179.14,321.11Z" style="fill:#263238"></path><path d="M190.61,317.62v4.61a.25.25,0,0,1-.25.25.25.25,0,0,1-.25-.25v-.76a2.35,2.35,0,0,1-1.92,1,2.56,2.56,0,0,1,0-5.11,2.34,2.34,0,0,1,1.92,1v-.75a.25.25,0,0,1,.25-.25A.24.24,0,0,1,190.61,317.62Zm-.5,2.3a1.92,1.92,0,1,0-1.92,2.06A2,2,0,0,0,190.11,319.92Z" style="fill:#263238"></path><path d="M194.22,322.44a.31.31,0,0,1-.08-.11l-1.92-4.58a.25.25,0,0,1,.12-.32.24.24,0,0,1,.32.13l1.71,4,1.7-4a.25.25,0,0,1,.32-.13.24.24,0,0,1,.13.32l-1.91,4.53a.33.33,0,0,1-.07.13.21.21,0,0,1-.16.07h-.11Z" style="fill:#263238"></path><path d="M198,319.94a2.48,2.48,0,0,1,5-.19h0v0a.24.24,0,0,1-.25.23h-4.2a2,2,0,0,0,2,2,1.9,1.9,0,0,0,1.64-.93.26.26,0,0,1,.34-.08.27.27,0,0,1,.08.35,2.44,2.44,0,0,1-2.06,1.16A2.52,2.52,0,0,1,198,319.94Zm.53-.41h3.88a2,2,0,0,0-3.88,0Z" style="fill:#263238"></path><path d="M207.47,319.91a2.57,2.57,0,0,1,2.63-2.54,2.66,2.66,0,0,1,1.63.56.22.22,0,0,1,0,.34.25.25,0,0,1-.34.05,2.06,2.06,0,0,0-1.32-.46,2.06,2.06,0,1,0,0,4.12,2.17,2.17,0,0,0,1.32-.45.26.26,0,0,1,.34,0,.24.24,0,0,1,0,.37,2.66,2.66,0,0,1-1.61.54A2.58,2.58,0,0,1,207.47,319.91Z" style="fill:#263238"></path><path d="M218.09,317.62v4.61a.25.25,0,0,1-.25.25.25.25,0,0,1-.25-.25v-.76a2.36,2.36,0,0,1-1.92,1,2.56,2.56,0,0,1,0-5.11,2.35,2.35,0,0,1,1.92,1v-.75a.25.25,0,0,1,.25-.25A.24.24,0,0,1,218.09,317.62Zm-.5,2.3a1.92,1.92,0,1,0-1.92,2.06A2,2,0,0,0,217.59,319.92Z" style="fill:#263238"></path><path d="M220.27,317.63a.25.25,0,1,1,.5,0v1.13a.54.54,0,0,1,.07-.13,2.47,2.47,0,0,1,2-1.25.25.25,0,0,1,.25.25.26.26,0,0,1-.25.25,1.82,1.82,0,0,0-1.48.83,4.37,4.37,0,0,0-.62,1.19.2.2,0,0,0,0,.09v2.24a.25.25,0,1,1-.5,0Z" style="fill:#263238"></path><path d="M228.68,321.49a2.39,2.39,0,0,1-2,1,2.56,2.56,0,0,1,0-5.11,2.4,2.4,0,0,1,2,1v-2.95a.26.26,0,0,1,.27-.24.25.25,0,0,1,.25.24v6.81a.25.25,0,0,1-.25.25.26.26,0,0,1-.27-.25Zm0-1.47v-.17a2,2,0,1,0,0,.17Z" style="fill:#263238"></path><path d="M238.27,319.45a1.57,1.57,0,0,0-1.57-1.57,1.6,1.6,0,0,0-1.59,1.57v2.82a.26.26,0,0,1-.05.12.23.23,0,0,1-.19.09h-.06a.26.26,0,0,1-.17-.13s0,0,0,0v-4.68a.25.25,0,1,1,.49,0v.49a2.07,2.07,0,0,1,3.66,1.33v2.78a.24.24,0,0,1-.25.25.25.25,0,0,1-.25-.25Z" style="fill:#263238"></path><path d="M240.92,317.61a.24.24,0,0,1,.25-.25.25.25,0,0,1,.25.25v2.78a1.58,1.58,0,1,0,3.15,0v-2.78a.25.25,0,0,1,.25-.25.24.24,0,0,1,.26.25v2.78a2.08,2.08,0,1,1-4.16,0Z" style="fill:#263238"></path><path d="M254.74,319.45a1.61,1.61,0,0,0-1.59-1.58,1.59,1.59,0,0,0-1.57,1.58v2.86a.23.23,0,0,1-.13.14.27.27,0,0,1-.12,0h-.07a.15.15,0,0,1-.07,0l0,0,0,0,0,0v0a0,0,0,0,0,0,0s0,0,0,0v-2.84a1.58,1.58,0,1,0-3.16,0v2.79a.22.22,0,0,1-.11.2l-.06,0h-.11a.27.27,0,0,1-.21-.19v-4.67a.24.24,0,0,1,.24-.24.23.23,0,0,1,.25.24v.49a2,2,0,0,1,1.58-.73,2.1,2.1,0,0,1,1.83,1.08,2.11,2.11,0,0,1,1.83-1.08,2.08,2.08,0,0,1,2.08,2.07v2.79a.24.24,0,0,1-.25.24.24.24,0,0,1-.24-.24Z" style="fill:#263238"></path><path d="M257.36,320v-4.62a.25.25,0,0,1,.25-.24.25.25,0,0,1,.26.24v2.95a2.43,2.43,0,0,1,2-1,2.56,2.56,0,0,1,0,5.11,2.42,2.42,0,0,1-2-1v.74a.26.26,0,0,1-.26.25.25.25,0,0,1-.25-.25Zm.51-.1a2,2,0,1,0,0-.09Z" style="fill:#263238"></path><path d="M263.89,319.94a2.47,2.47,0,1,1,4.94-.19h0v0a.24.24,0,0,1-.25.23h-4.19a2,2,0,0,0,2,2,1.92,1.92,0,0,0,1.65-.93.25.25,0,0,1,.33-.08.26.26,0,0,1,.09.35,2.44,2.44,0,0,1-2.07,1.16A2.51,2.51,0,0,1,263.89,319.94Zm.53-.41h3.87a2,2,0,0,0-1.92-1.66A2,2,0,0,0,264.42,319.53Z" style="fill:#263238"></path><path d="M270.39,317.63a.25.25,0,0,1,.26-.25.24.24,0,0,1,.24.25v1.13a.35.35,0,0,1,.08-.13,2.44,2.44,0,0,1,2-1.25.24.24,0,0,1,.25.25.25.25,0,0,1-.25.25,1.82,1.82,0,0,0-1.48.83,5,5,0,0,0-.62,1.19.2.2,0,0,0,0,.09v2.24a.24.24,0,0,1-.24.25.25.25,0,0,1-.26-.25Z" style="fill:#263238"></path><rect x="295.14" y="313.61" width="24.33" height="10.77" rx="5.15" style="fill:#B3D692;opacity:0.5"></rect><path d="M318.6,319a4.58,4.58,0,1,1-4.58-4.58A4.58,4.58,0,0,1,318.6,319Z" style="fill:#B3D692"></path><rect x="191.32" y="349.56" width="117.22" height="22.45" style="fill:#B3D692"></rect><path d="M201.45,356.54a.26.26,0,0,1,.25-.26h2.06a2.09,2.09,0,0,1,0,4.17l-1.8,0v2.87a.26.26,0,0,1-.26.25.25.25,0,0,1-.25-.25Zm2.31,3.42a1.6,1.6,0,0,0,1.58-1.59,1.58,1.58,0,0,0-1.58-1.57H202V360Z" style="fill:#fff"></path><path d="M207.42,358.74a.25.25,0,0,1,.26-.25.24.24,0,0,1,.24.25v1.13a.35.35,0,0,1,.08-.13,2.44,2.44,0,0,1,2-1.25.24.24,0,0,1,.25.25.25.25,0,0,1-.25.25,1.82,1.82,0,0,0-1.48.83,4.86,4.86,0,0,0-.62,1.19.18.18,0,0,0,0,.09v2.24a.24.24,0,0,1-.24.25.25.25,0,0,1-.26-.25Z" style="fill:#fff"></path><path d="M213.93,358.48a2.56,2.56,0,1,1-2.42,2.55A2.5,2.5,0,0,1,213.93,358.48Zm0,4.61A2.07,2.07,0,1,0,212,361,2,2,0,0,0,213.93,363.09Z" style="fill:#fff"></path><path d="M217.91,361a2.57,2.57,0,0,1,2.63-2.54,2.68,2.68,0,0,1,1.63.56.25.25,0,0,1,0,.35.27.27,0,0,1-.35,0,2,2,0,0,0-1.31-.46,2.06,2.06,0,1,0,0,4.12,2.14,2.14,0,0,0,1.31-.45.27.27,0,0,1,.35,0,.26.26,0,0,1,0,.37,2.69,2.69,0,0,1-1.61.54A2.58,2.58,0,0,1,217.91,361Z" style="fill:#fff"></path><path d="M223.71,361a2.48,2.48,0,0,1,4.95-.18h0v0a.24.24,0,0,1-.25.23h-4.19a2,2,0,0,0,2,2,1.92,1.92,0,0,0,1.65-.93.25.25,0,0,1,.33-.08.26.26,0,0,1,.09.35,2.44,2.44,0,0,1-2.07,1.16A2.52,2.52,0,0,1,223.71,361Zm.54-.4h3.87A2,2,0,0,0,226.2,359,2,2,0,0,0,224.25,360.64Z" style="fill:#fff"></path><path d="M230.08,361a2.47,2.47,0,0,1,4.94-.18h0v0a.24.24,0,0,1-.25.23h-4.19a2,2,0,0,0,2,2,1.92,1.92,0,0,0,1.65-.93.25.25,0,0,1,.33-.08.26.26,0,0,1,.09.35,2.44,2.44,0,0,1-2.07,1.16A2.51,2.51,0,0,1,230.08,361Zm.53-.4h3.87a2,2,0,0,0-1.92-1.66A2,2,0,0,0,230.61,360.64Z" style="fill:#fff"></path><path d="M240.89,362.6a2.42,2.42,0,0,1-2,1,2.56,2.56,0,0,1,0-5.11,2.43,2.43,0,0,1,2,1v-2.94a.26.26,0,0,1,.26-.26.26.26,0,0,1,.25.26v6.8a.25.25,0,0,1-.25.25.26.26,0,0,1-.26-.25Zm0-1.47V361a2,2,0,1,0,0,.17Z" style="fill:#fff"></path><path d="M248.61,358.73a.27.27,0,0,1-.25.25h-.66v3.72a.4.4,0,0,0,.38.38.29.29,0,0,1,.26.26.27.27,0,0,1-.26.25.87.87,0,0,1-.9-.89V359h-.63c-.25,0-.25-.13-.25-.25s0-.25.25-.25h.63v-1.9a.27.27,0,0,1,.25-.25.27.27,0,0,1,.27.25v1.9h.66A.26.26,0,0,1,248.61,358.73Z" style="fill:#fff"></path><path d="M253,358.48a2.56,2.56,0,1,1-2.42,2.55A2.5,2.5,0,0,1,253,358.48Zm0,4.61a2.07,2.07,0,1,0-1.92-2.06A2,2,0,0,0,253,363.09Z" style="fill:#fff"></path><path d="M260.14,361a2.57,2.57,0,0,1,2.63-2.54,2.66,2.66,0,0,1,1.63.56.24.24,0,0,1,0,.35.27.27,0,0,1-.35,0,2,2,0,0,0-1.32-.46,2.06,2.06,0,1,0,0,4.12,2.15,2.15,0,0,0,1.32-.45.27.27,0,0,1,.35,0,.25.25,0,0,1-.06.37,2.66,2.66,0,0,1-1.61.54A2.58,2.58,0,0,1,260.14,361Z" style="fill:#fff"></path><path d="M268.5,358.48a2.56,2.56,0,1,1-2.42,2.55A2.5,2.5,0,0,1,268.5,358.48Zm0,4.61a2.07,2.07,0,1,0-1.92-2.06A2,2,0,0,0,268.5,363.09Z" style="fill:#fff"></path><path d="M276.5,360.56a1.57,1.57,0,0,0-1.58-1.57,1.6,1.6,0,0,0-1.58,1.57v2.82a.17.17,0,0,1-.06.12.21.21,0,0,1-.18.09H273a.26.26,0,0,1-.16-.13,0,0,0,0,1,0,0,0,0,0,0,0,0,0v-4.66a.24.24,0,0,1,.25-.25.25.25,0,0,1,.24.25v.49a2.06,2.06,0,0,1,1.58-.74,2.08,2.08,0,0,1,2.08,2.07v2.78a.25.25,0,0,1-.5,0Z" style="fill:#fff"></path><path d="M281.5,356.56a.25.25,0,0,1-.25.25.84.84,0,0,0-.65.19,1.32,1.32,0,0,0-.2.85v.54h.72a.26.26,0,0,1,.26.25.26.26,0,0,1-.26.26h-.72v4.45a.25.25,0,0,1-.25.25.26.26,0,0,1-.27-.25V358.9h-.67a.25.25,0,0,1-.25-.26.25.25,0,0,1,.25-.25h.67v-.54a1.82,1.82,0,0,1,.34-1.19,1.37,1.37,0,0,1,1-.37A.26.26,0,0,1,281.5,356.56Z" style="fill:#fff"></path><path d="M283,357.06a.26.26,0,0,1,.51,0v.24a.26.26,0,1,1-.51,0Zm0,1.67a.24.24,0,0,1,.25-.25.24.24,0,0,1,.26.25v4.61a.26.26,0,0,1-.51,0Z" style="fill:#fff"></path><path d="M286,358.74a.25.25,0,0,1,.26-.25.24.24,0,0,1,.24.25v1.13l.08-.13a2.44,2.44,0,0,1,2-1.25.24.24,0,0,1,.25.25.25.25,0,0,1-.25.25,1.85,1.85,0,0,0-1.48.83,4.73,4.73,0,0,0-.61,1.19.13.13,0,0,0,0,.09v2.24a.24.24,0,0,1-.24.25.25.25,0,0,1-.26-.25Z" style="fill:#fff"></path><path d="M297.87,360.56a1.59,1.59,0,0,0-3.17,0v2.87a.25.25,0,0,1-.12.13.31.31,0,0,1-.13,0h-.07l-.06,0,0,0,0,0,0,0v0a.06.06,0,0,0,0,0v-2.84a1.58,1.58,0,1,0-3.15,0v2.79a.21.21,0,0,1-.12.2l-.06,0h-.1a.26.26,0,0,1-.21-.19v-4.67a.24.24,0,0,1,.24-.24.24.24,0,0,1,.25.24v.49a2,2,0,0,1,1.57-.73,2.08,2.08,0,0,1,1.83,1.08,2.14,2.14,0,0,1,1.84-1.08,2.08,2.08,0,0,1,2.08,2.07v2.79a.25.25,0,0,1-.25.24.24.24,0,0,1-.24-.24Z" style="fill:#fff"></path></g></svg>